<svg version="1.0" xmlns="http://www.w3.org/2000/svg" width="700.000000pt" height="700.000000pt" viewBox="0 0 700.000000 700.000000" preserveAspectRatio="xMidYMid meet"><metadata></metadata><g transform="translate(0.000000,700.000000) scale(0.100000,-0.100000)" fill="#000000" stroke="none"><path d="M972 5122 c-18 -15 -32 -35 -32 -44 0 -9 -5 -20 -10 -23 -7 -4 -10 -483 -10 -1442 0 -1155 -2 -1438 -12 -1445 -7 -5 -134 -8 -283 -7 l-270 2 -3 -117 -3 -118 40 -39 39 -39 3081 2 3080 3 30 35 31 35 -3 119 -2 118 -270 -1 c-148 -1 -276 2 -283 7 -10 7 -12 297 -12 1439 0 1540 2 1471 -50 1518 -22 20 -46 20 -2524 22 l-2501 3 -33 -28z m2558 -56 c6 -8 10 -25 8 -38 -2 -19 -9 -23 -38 -23 -29 0 -36 4 -38 23 -4 28 14 52 38 52 10 0 23 -7 30 -14z m2321 -156 c19 -11 19 -35 19 -1268 0 -965 -3 -1261 -12 -1270 -17 -17 -4699 -17 -4716 0 -9 9 -12 305 -12 1270 0 1187 1 1258 18 1267 24 15 4676 15 4703 1z m-2020 -2879 c21 -16 22 -22 11 -45 l-12 -26 -324 0 c-282 0 -327 2 -340 16 -21 20 -20 30 4 54 19 19 33 20 329 20 287 0 310 -1 332 -19z"></path><path d="M3605 4195 c-5 -18 -34 -119 -55 -190 -11 -38 -27 -92 -35 -120 -8 -27 -24 -81 -36 -120 -11 -38 -27 -92 -35 -120 -25 -91 -55 -189 -65 -220 -6 -16 -17 -52 -24 -80 -7 -27 -20 -72 -29 -100 -39 -127 -58 -194 -70 -240 -7 -28 -19 -61 -27 -73 -23 -37 2 -50 90 -43 60 5 76 10 92 30 10 13 19 34 19 47 0 13 7 41 15 61 8 21 19 56 24 78 6 22 19 69 29 105 11 36 37 121 57 190 20 69 43 145 50 170 42 136 58 190 70 235 8 28 24 82 35 120 12 39 27 93 35 120 7 28 20 70 29 94 10 28 13 48 7 54 -13 13 -173 15 -176 2z"></path><path d="M3005 3951 c-6 -11 -23 -19 -190 -96 -120 -55 -149 -69 -275 -128 -178 -84 -319 -148 -352 -160 -15 -5 -18 -19 -18 -86 l0 -81 73 -33 c39 -19 104 -49 142 -67 39 -18 103 -48 143 -66 159 -75 222 -104 332 -154 63 -30 125 -60 137 -68 40 -25 47 -12 47 83 l1 88 -75 34 c-41 19 -95 43 -120 54 -25 11 -58 26 -75 34 -16 7 -52 23 -80 35 -27 12 -63 27 -80 35 -16 8 -59 26 -94 40 -73 30 -111 53 -111 67 0 5 26 20 58 34 31 14 71 32 87 39 17 8 53 23 80 35 59 26 83 37 188 84 43 20 81 36 85 36 4 0 25 9 47 20 22 11 44 20 51 20 26 0 36 32 37 117 1 73 -2 88 -15 91 -9 2 -19 -2 -23 -7z"></path><path d="M3927 3954 c-11 -11 -8 -163 3 -185 6 -10 18 -19 27 -19 9 0 37 -9 62 -21 25 -12 60 -27 76 -34 17 -7 53 -23 80 -35 28 -12 64 -27 80 -35 17 -8 75 -32 130 -55 197 -82 205 -88 155 -115 -24 -13 -41 -21 -170 -75 -30 -13 -88 -38 -128 -57 -40 -18 -78 -33 -83 -33 -6 0 -23 -7 -37 -15 -15 -8 -56 -26 -92 -41 -112 -45 -110 -42 -110 -139 0 -46 4 -86 10 -90 5 -3 33 6 62 21 29 14 67 32 83 40 17 7 64 29 105 47 41 19 100 46 130 60 30 13 91 41 135 62 44 20 103 47 130 60 28 13 88 41 135 63 l85 39 -1 82 -1 82 -39 19 c-38 18 -108 50 -241 111 -38 16 -84 37 -103 46 -19 9 -42 20 -50 25 -8 4 -22 11 -30 14 -8 3 -28 11 -45 19 -16 8 -61 28 -100 46 -57 26 -223 105 -246 116 -3 2 -8 0 -12 -3z"></path></g></svg>