<svg xmlns="http://www.w3.org/2000/svg" version="1" viewBox="0 0 2207 1015" fill="#3f51b4"><path d="M707 2c-3 1-7 3-11 7-9 10-9 8-9 66v50h-91c-104 0-96-1-107 9-10 11-9-17-9 250v234h-19l-20-1-4-10a157 157 0 0 0-183-105 161 161 0 0 0-107 83c-5 10-11 25-14 38-2 10-3 12-3 34 1 21 1 23 3 34a161 161 0 0 0 83 107c10 4 25 10 38 13 10 2 12 2 34 2 21 1 23 0 34-2 20-5 37-12 53-23l10-7v104c0 119-1 109 9 120 10 10 4 9 94 9s84 1 94-9 9-6 9-83v-66h330v3l-5 61-4 57h-24l-27 1c-3 2-8 6-10 10v25c2 2 295 2 297 0s1-21 0-25c-2-4-6-8-10-10l-27-1h-23l-5-57-5-61v-3h146v45c0 51 0 51 7 59l3 4h-29l-31 1-1 16c0 12 0 15 2 19 2 5 7 10 12 12 4 2 19 2 411 2 391 0 407 0 410-2 6-2 11-7 13-12 2-4 2-7 2-19l-1-16-31-1h-29l3-4c7-8 7-5 7-92v-78h74c86 0 81 1 91-9 10-11 9 14 9-229s1-218-9-229c-11-10 19-9-269-9s-258-1-269 9c-10 10-9 6-9 80v64h-72V309c0-181 1-164-9-175-11-10 8-9-184-9h-168V75c0-58 0-56-9-66-11-10 13-9-226-9-189 0-211 0-215 2zm427 8c5 3 10 8 13 13 1 3 2 6 2 19v16H695V46l1-18c2-9 9-17 18-19l210-1c202 0 207 0 210 2zm15 274c0 214 0 219-2 222-3 5-8 10-13 13-3 2-8 2-212 2s-209 0-212-2c-5-3-10-8-13-13l-2-222V66h454v218zM687 160v27H553l-4 3c-6 5-6-14-6 218v210h-55V388l1-235c2-9 9-17 18-19l92-1h88v27zm808-25c5 3 10 8 13 13 2 3 2 7 2 161v158h-56V196l-3-3c-5-7 7-6-151-6h-143v-54h167c163 0 168 0 171 2zM687 349c0 177-1 160 10 170 10 11-14 10 225 10s215 1 226-9c10-11 9 6 9-171V195h284l2 3 3 2v267h-98c-113 0-104-1-114 10-11 10-10-1-10 123v108H591v-32c0-39 0-39-9-48-8-8-13-10-24-10h-7V410l1-210c3-5 2-5 71-5h64v154zm1436-25c5 3 10 8 13 13 1 3 2 6 2 19v16h-540v-12l1-18c2-9 9-17 18-19l254-1c244 0 249 0 252 2zm15 248c0 187 0 192-2 195-3 5-8 10-13 13-3 2-8 2-255 2s-252 0-255-2c-5-3-10-8-13-13l-2-195V380h540v192zm-548-78v20h-328l-3 2-2 2v403l2 3 2 2h336l338-1c4-1 4-2 4-71v-64h25v78c0 74-1 78-2 81-3 5-8 10-13 13-3 2-9 2-351 2s-348 0-351-2c-5-3-10-8-13-13l-2-226 1-228c2-9 9-17 18-19l172-1h167v20zM309 509a148 148 0 0 1 127 159c-3 36-17 67-43 94a148 148 0 1 1-210-210c34-35 77-49 126-43zm1281 134c0 139-1 127 10 137 10 11-7 10 173 10h157v127h-665V522h325v121zM568 628c5 3 10 8 12 12l3 12v9H445v-14h45l46-1v-6l-46-1c-44 0-46 0-46-2l-1-6v-5h61c58 0 61 1 64 2zm15 181v139H393V775l9-9c23-26 37-55 42-89l1-8h138v139zm641-27v66H591V716h633v66zm-155 74l5 61 5 60H920l5-60 5-61a6409 6409 0 0 1 139 0zM583 972c0 13-1 16-2 19-3 5-8 10-13 13-3 1-6 2-80 2s-77-1-80-2c-5-3-10-8-12-13-2-3-2-6-3-19v-15h190v15zm958 5c4 7 11 12 19 14 6 2 9 2 40 2h33l5-3c7-3 14-9 17-14l2-4h358v11c-1 15-4 20-14 22h-806c-10-2-13-7-14-22v-11h357l3 5zm104-3c-1 2-10 8-14 9l-34 1c-35 0-37 0-44-7l-4-4h48l48 1zm-512 12c5 2 7 5 8 13v7H858v-7c1-8 3-12 7-13h268z"/><path d="M728 27c-2 1-3 3-3 6s1 5 3 7l6 2 7-2 2-7-2-6c-2-2-4-3-7-3s-5 1-6 3zM758 27c-2 1-3 3-3 6s1 5 3 7l6 2 7-2 2-7-2-6c-2-2-4-3-7-3s-5 1-6 3zM788 27c-2 1-3 3-3 6s1 5 3 7l6 2 7-2 2-7-2-6c-2-2-4-3-7-3s-5 1-6 3zM777 147v4l1 2 17 1h17v-7l-17-1-18 1zM822 147v4l1 2 17 1h17v-7l-17-1-18 1zM867 147v4l1 2 28 1h29v-7l-29-1-29 1zM935 147v4l1 2 40 1h41v-7l-41-1-41 1zM777 187v4l1 2 34 1h35v-7l-35-1-35 1zM857 187v4l1 2 59 1h60v-7l-60-1-60 1zM987 187v4l1 2 24 1h25v-7l-25-1-25 1zM777 227v4l1 2 24 1h25v-7l-25-1-25 1zM837 227v4l1 2 24 1h25v-7l-25-1-25 1zM897 227v4c1 2 1 2 15 2l15 1v-7l-15-1-15 1zM777 267v4l1 2 49 1h50v-7l-50-1-50 1zM887 267v4l1 2 34 1h35v-7l-35-1-35 1zM777 307v4l1 2 49 1h50v-7l-50-1-50 1zM887 307v4l1 2 64 1h65v-7l-65-1-65 1zM777 347v4l1 2 34 1h35v-7l-35-1-35 1zM857 347v4l1 2 34 1h35v-7l-35-1-35 1zM937 347v4l1 2 19 1h20v-7l-20-1-20 1zM777 387v4l1 2 64 1h65v-7l-65-1-65 1zM777 427v4l1 2 29 1h30v-7l-30-1-30 1zM1631 341c-2 1-3 3-3 6 0 6 3 9 9 9s9-3 9-9-3-9-9-9c-3 0-5 1-6 3zM1661 341c-2 1-3 3-3 6 0 6 3 9 9 9s9-3 9-9-3-9-9-9c-3 0-5 1-6 3zM1691 341c-2 1-3 3-3 6 0 6 3 9 9 9s9-3 9-9-3-9-9-9c-3 0-5 1-6 3zM1691 455l-3 4v56l3 4 4 3h56l4-3 3-4v-56l-3-4-4-3h-56l-4 3zm57 7c2 2 2 3 2 25s0 23-2 25-3 2-25 2-23 0-25-2-2-3-2-25 0-23 2-25 3-2 25-2 23 0 25 2zM1918 467c0 6 0 6-7 7-17 4-38 15-52 29s-25 35-28 52c-2 7-2 7-8 7h-6v32h13v5a107 107 0 0 0 81 81l6 1v12h32v-6l1-6 5-1c29-6 57-28 71-55l3-6v42l-4 4c-4 3-4 4-4 9s0 6 3 9 4 3 9 3 6 0 9-3 3-4 3-9 0-6-4-9l-4-4v-67h11v-32h-11v-65l4-4c4-3 4-4 4-9s0-6-3-9-4-3-9-3-6 0-9 3-3 4-3 9 0 6 4 9l4 4v37l-3-5a107 107 0 0 0-71-55h-5v-13h-32v6zm24 10v8h-16v-16h16v8zm-24 11v5h32v-4c0-6 1-6 12-2 32 10 57 38 64 72 1 3 1 3-4 3h-6v32h5c6 0 6 0 3 12-6 17-18 34-31 45-9 7-26 15-36 18l-7 2-1-5v-5h-32v5l-1 5-7-2c-10-3-26-11-35-18a99 99 0 0 1-31-45c-4-11-4-12 2-12h4v-32h-5c-5 0-5 0-4-3 4-21 16-41 32-55a119 119 0 0 1 45-21l1 5zm-77 90v8h-16v-16h16v8zm199 0v8h-16v-16h16v8zm-99 99v8h-16v-16h16v8zM1691 545l-3 4v56l3 4 4 3h56l4-3 3-4v-56l-3-4-4-3h-56l-4 3zm57 7c2 2 2 3 2 25s0 23-2 25-3 2-25 2-23 0-25-2-2-3-2-25 0-23 2-25 3-2 25-2 23 0 25 2zM1691 635l-3 4v56l3 4 4 3h56l4-3 3-4v-56l-3-4-4-3h-56l-4 3zm57 7c2 2 2 3 2 25s0 23-2 25-3 2-25 2-23 0-25-2-2-3-2-25 0-23 2-25 3-2 25-2 23 0 25 2zM304 594a2281 2281 0 0 0-40 126c2 2 5 3 7 1l41-125c0-4-6-6-8-2zM244 614a588 588 0 0 0-45 43c0 2 4 6 23 22 23 22 26 24 29 19l1-4-21-19-20-18 3-3 38-35c0-2 0-3-2-4-3-2-3-2-6-1zM324 616v4l35 32 5 5-19 17-21 19v5c2 5 5 3 29-19 19-16 23-20 23-22s-4-6-22-22c-26-24-27-24-30-19zM480 783v4l1 2h69v-7h-35l-35 1zM437 791c-7 3-11 9-11 17 0 11 8 19 19 19s19-8 19-19-8-19-19-19l-8 2zm15 10c7 6 2 17-7 17s-14-10-7-17c4-5 10-5 14 0zM480 805v4l1 2h49v-7h-25l-25 1zM480 827v4c1 2 1 2 15 2h15v-7h-15l-15 1zM989 767c-8 4-12 12-12 22 1 8 4 14 10 18 4 2 5 3 13 3 7 0 8-1 12-3l7-7c2-4 2-5 2-12 0-8 0-9-2-13-5-6-10-9-18-10-6 0-8 0-12 2zm20 11c10 10 1 26-13 23-4-1-9-6-10-10-3-14 13-23 23-13zM480 972c-2 3-3 4-3 8 0 5 1 6 4 9s3 3 8 3c7-1 10-4 11-11 0-5 0-5-3-8s-4-4-8-4-6 1-9 3zM47 890c-22 5-40 24-45 46-2 7-2 23 0 31 5 22 24 40 46 46l133 1h128l3-3c3-3 3-3 3-12 0-8 0-9-3-12s-4-4-8-4l-23-6c-20-11-20-41 0-52l23-6c4 0 5-1 8-4s3-4 3-12c0-9 0-9-3-12l-3-3H181c-109 0-129 0-134 2zm259 7v12c-1 1-16 2-128 2l-126 1-7 3c-4 1-9 5-12 8-2 2-6 7-7 11-3 6-4 7-4 17 1 10 1 11 4 17 4 9 10 15 19 19l6 4h127c112 0 127 1 128 2 2 2 1 11 0 12l-127 1H54l-7-3c-17-5-31-19-36-36-3-9-3-23 0-32 6-20 25-36 46-38a6193 6193 0 0 1 249 0zm-37 26l-6 7-2 4H158l-103 1v7h203v17H156l-101 1v7h205l2 4 7 8 4 4H56l-6-3c-8-4-12-8-16-15-6-12-4-25 5-35 4-4 12-9 18-10l110-1h106l-4 4zM2128 947c-13 3-28 13-36 23-8 12-13 25-13 37v7h128v-7c0-12-4-25-13-37-8-10-24-20-37-23h-30zm11 11c0 2 1 2 4 2s4 0 4-2c0-4 3-4 11-1 18 5 33 20 38 38l2 8v3h-110v-3c0-13 13-33 27-41 6-3 16-7 21-7 2 0 3 0 3 3z"/></svg>