<svg version="1" xmlns="http://www.w3.org/2000/svg" width="1365.333" height="1365.333" viewBox="0 0 1024.000000 1024.000000"><path d="M477.5.6c-2.2.2-9.2.9-15.5 1.5-85.2 7.8-169.7 38.8-241.7 88.6-68.1 47-125.6 112.5-163.4 185.8-30.6 59.3-47.4 116.1-55.1 186-2.1 18.8-1.7 84.9.5 104C12.4 651.3 38.7 724.9 83.5 793c21.1 32 37.9 52.5 66.9 81.6 42.3 42.3 85 72.7 138.1 98.5 58.8 28.6 119.8 44.9 186.5 50 23.1 1.7 73.8.7 96.4-2C672 1009 762.3 970.2 841 905c16.1-13.3 50.7-47.9 64-64 58.1-70.2 95.1-149.2 111.4-238.1 5.8-31.4 7-47.1 7-90.4.1-42.9-.6-53-6-85C1002.3 337.1 964.1 254 905 183c-12.3-14.7-39.4-42.6-53.3-54.8-35.4-31-72.2-55.6-114.2-76.2C682.6 25 630.8 9.9 567 2.4 554.3.9 488.3-.4 477.5.6zM826 481v180h67v15c0 14.8-.1 15.1-2.5 17.6-1.4 1.4-2.5 2.9-2.5 3.4 0 .6-136.9 1-373.1 1H141.8l-4.4-4.2-4.4-4.2V661l34.3-.2 34.2-.3.3-179.8.2-179.7h624v180z"/><path d="M510.4 311.4c-.3.8-.4 2.5-.2 3.8.2 1.9 1 2.4 4.1 2.6 3.5.3 3.7.2 3.7-2.5 0-1.6-.5-3.4-1.2-4.1-1.7-1.7-5.7-1.5-6.4.2zM229 482v153h570l-.2-152.8-.3-152.7-284.7-.3L229 329v153zM472.7 674.7c-.4.3-.7 3-.7 6v5.3h83v-12h-40.8c-22.5 0-41.2.3-41.5.7z"/></svg>